<?xml version="1.0" encoding="UTF-8" standalone="no"?>
<!-- Created with Inkscape (http://www.inkscape.org/) -->

<svg
   xmlns:osb="http://www.openswatchbook.org/uri/2009/osb"
   xmlns:dc="http://purl.org/dc/elements/1.1/"
   xmlns:cc="http://creativecommons.org/ns#"
   xmlns:rdf="http://www.w3.org/1999/02/22-rdf-syntax-ns#"
   xmlns:svg="http://www.w3.org/2000/svg"
   xmlns="http://www.w3.org/2000/svg"
   xmlns:xlink="http://www.w3.org/1999/xlink"
   xmlns:sodipodi="http://sodipodi.sourceforge.net/DTD/sodipodi-0.dtd"
   xmlns:inkscape="http://www.inkscape.org/namespaces/inkscape"
   id="svg2985"
   version="1.1"
   inkscape:version="0.48.2 r9819"
   width="100"
   height="100"
   sodipodi:docname="caballo2.png"
   inkscape:export-filename="C:\Users\AloS\Desktop\caballo2.png"
   inkscape:export-xdpi="100"
   inkscape:export-ydpi="100">
  <sodipodi:namedview
     pagecolor="#000000"
     bordercolor="#666666"
     borderopacity="1"
     objecttolerance="10"
     gridtolerance="10"
     guidetolerance="10"
     inkscape:pageopacity="0.05882353"
     inkscape:pageshadow="2"
     inkscape:window-width="1366"
     inkscape:window-height="706"
     id="namedview2987"
     showgrid="false"
     inkscape:zoom="0.59986225"
     inkscape:cx="296.35333"
     inkscape:cy="300"
     inkscape:window-x="-8"
     inkscape:window-y="-8"
     inkscape:window-maximized="1"
     inkscape:current-layer="svg2985" />
  <metadata
     id="metadata2991">
    <rdf:RDF>
      <cc:Work
         rdf:about="">
        <dc:format>image/svg+xml</dc:format>
        <dc:type
           rdf:resource="http://purl.org/dc/dcmitype/StillImage" />
        <dc:title></dc:title>
      </cc:Work>
    </rdf:RDF>
  </metadata>
  <defs
     id="defs2989">
    <linearGradient
       id="linearGradient5211">
      <stop
         style="stop-color:#ffffff;stop-opacity:1;"
         offset="0"
         id="stop5213" />
      <stop
         id="stop5221"
         offset="0.3298969"
         style="stop-color:#ffffff;stop-opacity:0.74901961;" />
      <stop
         id="stop5219"
         offset="0.97927517"
         style="stop-color:#ffffff;stop-opacity:0.49803922;" />
      <stop
         style="stop-color:#ffffff;stop-opacity:0;"
         offset="1"
         id="stop5215" />
    </linearGradient>
    <linearGradient
       id="linearGradient5205"
       osb:paint="solid">
      <stop
         style="stop-color:#ffffff;stop-opacity:1;"
         offset="0"
         id="stop5207" />
    </linearGradient>
    <filter
       color-interpolation-filters="sRGB"
       inkscape:menu-tooltip="Sharpen edges and boundaries within the object, force=0.3"
       inkscape:menu="Image effects"
       height="1"
       width="1"
       y="0"
       x="0"
       inkscape:label="Sharpen more"
       id="filter3001">
      <feConvolveMatrix
         result="result1"
         order="3 3"
         kernelMatrix="0 -0.3 0 -0.3 2.2 -0.3 0 -0.3 0"
         divisor="1"
         in="SourceGraphic"
         targetX="1"
         targetY="1"
         id="feConvolveMatrix3003" />
      <feBlend
         result="result2"
         mode="normal"
         in2="SourceGraphic"
         id="feBlend3005" />
    </filter>
    <linearGradient
       inkscape:collect="always"
       xlink:href="#linearGradient5211"
       id="linearGradient5217"
       x1="240.14687"
       y1="285.53958"
       x2="340.14688"
       y2="285.53958"
       gradientUnits="userSpaceOnUse"
       gradientTransform="translate(-239.38691,-235.60505)" />
  </defs>
  <path
     style="fill:url(#linearGradient5217);fill-opacity:1;fill-rule:nonzero"
     d="m 80.130346,92.049426 c -1.98798,-0.53613 -4.14743,-2.29039 -5.06425,-4.11401 -1.6741,-3.32991 -1.18328,-6.75721 1.41536,-9.88316 1.0087,-1.21338 1.12131,-2.04008 1.12131,-8.23187 0,-5.08615 -0.0294,-5.63545 -0.35896,-6.70238 -0.50273,-1.62767 -1.51535,-2.82553 -3.05309,-3.61164 l -1.20115,-0.61404 -3.61447,-0.0499 c -1.98796,-0.0274 -10.36449,0.0122 -18.61452,0.0879 l -15.00004,0.13782 -0.97292,0.4561 c -1.34796,0.63192 -2.20008,1.43369 -2.85482,2.68614 l -0.55824,1.06783 -0.0877,10.78951 c -0.0859,10.56215 -0.0956,10.80614 -0.46245,11.57898 -0.50432,1.06251 -1.463,1.99096 -2.66572,2.58167 l -0.99465,0.48851 -7.98248,0 c -7.83472,0 -7.99764,-0.007 -8.80172,-0.38246 -1.12224,-0.52391 -2.18662,-1.52701 -2.74703,-2.58887 l -0.46883,-0.88833 0,-14.91232 c 0,-14.89416 5.2e-4,-14.91332 0.3776,-15.72923 0.47319,-1.02369 1.66106,-2.19356 2.69258,-2.65178 0.65167,-0.28948 1.37134,-0.37446 4.12282,-0.48682 2.67079,-0.10907 3.53666,-0.20806 4.3562,-0.498 1.61186,-0.57024 2.5935,-1.39604 3.28952,-2.76729 l 0.59992,-1.18193 0.059,-6.50043 c 0.0654,-7.21013 -0.051,-8.38738 -0.97385,-9.85029 -1.99969,-3.16987 -6.83983,-2.78975 -9.14617,0.71828 -0.45367,0.69006 -0.46286,0.76488 -0.55104,4.4877 -0.0895,3.77908 -0.0905,3.78706 -0.56224,4.40515 -1.38354,1.81291 -4.19226,1.55878 -5.20296,-0.47076 l -0.43633,-0.87619 0.20851,-9.387 c 0.11468,-5.16285 0.20695,-10.42046 0.20504,-11.68357 l -0.004,-2.29656 -1.35966,-1.59452 c -0.74781,-0.87699 -1.9714995,-2.28069 -2.7192995,-3.11934 -0.97824,-1.09707 -1.35966,-1.65669 -1.35966,-1.9949 0,-0.60544 0.29527,-0.89113 0.921,-0.89113 0.60284,0 1.12105,0.25739 2.7009395,1.34155 4.84618,3.32555 4.93836,3.37037 6.46097,3.14204 0.43027,-0.0645 1.26953,-0.31529 1.86504,-0.55727 0.59551,-0.24197 1.96006,-0.64706 3.03233,-0.90019 1.82884,-0.43173 2.22671,-0.46085 6.4233,-0.47011 4.26698,-0.009 4.5785,0.0129 6.74175,0.48276 6.59573,1.43264 10.98574,3.79057 15.55216,8.35327 4.55969,4.55598 7.58006,9.87176 8.93361,15.72294 1.13041,4.88655 2.44562,7.49843 4.24419,8.4285 1.23508,0.63869 1.54038,0.60727 11.28282,-1.16109 1.64035,-0.29774 3.87087,-0.69709 4.95671,-0.88743 2.33321,-0.40901 2.59973,-0.49965 3.36653,-1.14486 0.85308,-0.71782 1.06275,-1.38186 1.06275,-3.36577 0,-2.13919 0.29521,-3.07523 1.3344,-4.23106 0.5817,-0.64699 1.11533,-1.00909 2.13298,-1.44735 1.31536,-0.56646 1.4302,-0.58448 3.72562,-0.58448 2.28507,0 2.41512,0.0201 3.69503,0.57174 1.44066,0.62091 2.36286,1.4344 2.92938,2.58408 0.19019,0.38597 0.75951,2.00439 1.26514,3.5965 0.50563,1.59211 1.337024,4.19738 1.847524,5.78949 0.5105,1.59211 1.45439,4.55265 2.09752,6.57897 0.64313,2.02632 1.31514,4.11843 1.49336,4.64914 2.0004,5.95677 2.27736,7.6415 1.60918,9.78838 -0.81876,2.63068 -3.06601,4.09294 -7.345174,4.77942 -2.73882,0.43938 -3.71637,0.90962 -4.36323,2.09891 -0.28704,0.52774 -0.34199,1.07039 -0.39095,3.86113 l -0.057,3.24708 0.6025,0.78908 c 1.42422,1.86524 1.97192,3.64339 1.84821,6.00036 -0.0657,1.25158 -0.17883,1.69684 -0.7216,2.83975 -1.07808,2.27012 -2.94431,3.88887 -5.28471,4.58389 -1.0731,0.31868 -3.39915,0.31547 -4.59238,-0.006 z m 3.77315,-4.99142 c 1.44099,-0.73514 2.14292,-2.20928 1.78761,-3.75418 -0.27148,-1.18037 -0.74429,-1.76786 -1.86344,-2.31541 -0.77586,-0.3796 -1.10349,-0.44794 -1.71081,-0.35686 -1.4554,0.21825 -2.56359,1.17927 -2.93031,2.54117 -0.27337,1.01522 -0.0925,1.9349 0.55335,2.81307 0.99662,1.35519 2.73262,1.80224 4.1636,1.07221 z m -57.78944,-1.06875 c 0.27048,-0.85221 0.14355,-0.86878 -6.65731,-0.86878 -6.81763,0 -7.12072,0.0374 -6.86385,0.84671 l 0.12104,0.38137 6.64304,0 c 6.54085,0 6.6448,-0.006 6.75708,-0.3593 z m 2.66234,-2.03298 c 0.0606,-0.15785 0.0298,-0.41443 -0.0685,-0.57017 -0.15994,-0.25361 -1.11639,-0.28793 -9.1593,-0.32864 -5.99119,-0.0303 -9.09467,0.0155 -9.32305,0.13776 -0.334,0.17875 -0.45945,0.69702 -0.22537,0.9311 0.0643,0.0643 4.2905,0.11696 9.3915,0.11696 8.42468,0 9.28463,-0.0263 9.38468,-0.28701 z m -0.22332,-1.87372 c 0.17367,-0.12699 0.28637,-0.38357 0.25043,-0.57018 -0.0636,-0.33037 -0.3117,-0.33928 -9.44653,-0.33928 -9.13483,0 -9.3829,0.009 -9.44653,0.33928 -0.15101,0.78416 0.0484,0.80108 9.44653,0.80108 7.06522,0 8.94488,-0.0472 9.1961,-0.2309 z m 0.0737,-2.02848 c 0.12906,-0.0818 0.20801,-0.33717 0.17544,-0.56749 l -0.0592,-0.41876 -9.38359,0 c -9.1372,0 -9.38531,0.009 -9.44893,0.33928 -0.15117,0.78498 0.0427,0.80123 9.52392,0.79839 4.92675,-10e-4 9.06331,-0.0696 9.19237,-0.15142 z m -7.57905,-3.34108 c 1.02067,-0.46347 2.0637,-1.45909 2.54679,-2.43103 0.40827,-0.82143 0.41164,-0.87834 0.41164,-6.96856 0,-6.02779 -0.007,-6.15634 -0.40151,-7.01131 -0.47342,-1.02693 -1.39556,-1.93091 -2.49324,-2.44415 -0.68856,-0.32195 -1.11465,-0.36913 -3.33335,-0.36913 -1.54777,0 -2.82942,0.0868 -3.27313,0.22166 -1.01895,0.30971 -2.37903,1.58712 -2.88727,2.71178 -0.40871,0.90443 -0.41981,1.05764 -0.47162,6.51176 -0.0498,5.24481 -0.0311,5.6515 0.30699,6.66669 0.39715,1.19261 1.12676,2.11327 2.21173,2.79093 0.96877,0.60508 1.03617,0.6157 4.02559,0.63444 2.22394,0.0139 2.74401,-0.0346 3.35738,-0.31308 z m 62.83266,-4.84659 c 1.68072,-0.69978 2.43639,-2.80324 1.63829,-4.56026 -0.65855,-1.4498 -2.35525,-2.24563 -3.90053,-1.82953 -1.59433,0.42931 -2.79115,2.27373 -2.51934,3.88255 0.14373,0.85073 1.01769,2.01971 1.8346,2.45391 0.7489,0.39804 2.062,0.4218 2.94698,0.0533 z m -2.72654,-0.78011 c -0.81988,-0.49988 -1.26889,-1.32823 -1.26968,-2.34231 -10e-4,-1.46292 0.84529,-2.39343 2.30471,-2.53366 1.10986,-0.10664 1.82489,0.20581 2.45195,1.07144 1.6247,2.24284 -1.126,5.24404 -3.48698,3.80453 z m 2.23845,-1.40446 c 0.62022,-0.62022 0.37301,-1.7967 -0.4427,-2.10683 -0.5818,-0.2212 -1.39189,0.0916 -1.63839,0.63258 -0.27898,0.61229 -0.25235,0.83358 0.16399,1.36287 0.45562,0.57922 1.3947,0.63378 1.9171,0.11138 z m 10.27521,-6.22287 c 1.304734,-0.38899 2.421594,-1.50107 2.793824,-2.78187 0.49225,-1.69382 0.12288,-2.99238 -1.86981,-6.57343 -0.48651,-0.87431 -1.238934,-3.09483 -2.687284,-7.93067 -0.21674,-0.72369 -0.68831,-2.26317 -1.04793,-3.42107 -0.35961,-1.15789 -0.87122,-2.81579 -1.1369,-3.68422 -0.69913,-2.28518 -1.20618,-3.35557 -1.86254,-3.93185 -1.54087,-1.35291 -3.46774,-0.56347 -3.69384,1.51336 -0.10481,0.96274 0.17067,1.96137 1.85287,6.71675 2.22733,6.29641 2.54279,7.8136 2.11815,10.18711 -1.0356,5.78839 -0.19432,9.20592 2.45126,9.9577 0.91158,0.25904 2.10696,0.23894 3.0822,-0.0518 z m -10.39467,-4.31341 c 0.9678,-0.73749 1.34753,-1.47955 1.34753,-2.63324 0,-1.53108 -0.74212,-2.68983 -2.081,-3.24924 -1.44633,-0.60432 -3.34404,0.0326 -4.13903,1.38914 -0.84586,1.44336 -0.46549,3.63954 0.77075,4.4501 1.03249,0.67698 1.34193,0.77177 2.31773,0.71005 0.80424,-0.0509 1.14084,-0.17668 1.78402,-0.66681 z m -3.20759,-0.38481 c -2.25871,-1.1582 -1.70564,-4.46716 0.83146,-4.97458 1.08179,-0.21636 2.45482,0.56726 2.85966,1.63207 0.25706,0.67613 0.18979,1.67257 -0.15775,2.33648 -0.35077,0.67007 -1.55659,1.40077 -2.31159,1.40077 -0.24858,0 -0.79838,-0.17763 -1.22178,-0.39474 z m 2.09214,-1.39273 c 1.09908,-1.17972 -0.53881,-2.98521 -1.71448,-1.88991 -0.49873,0.46464 -0.51552,1.44055 -0.0331,1.92299 0.46699,0.46699 1.2963,0.45129 1.74756,-0.0331 z m -25.96433,-0.13083 c 0.11479,-0.21447 0.18162,-2.49391 0.18162,-6.19455 0,-6.18692 -0.0473,-6.56651 -0.80108,-6.42146 -0.32676,0.0629 -0.34098,0.29488 -0.38543,6.29011 -0.0254,3.42365 -0.008,6.32391 0.0383,6.44503 0.13006,0.33893 0.76316,0.2609 0.96654,-0.11913 z m 11.4992,-0.0554 c 0.0529,-0.2171 0.0741,-3.11737 0.0472,-6.44503 -0.0458,-5.6624 -0.0692,-6.05419 -0.36441,-6.111 -0.80677,-0.15525 -0.82491,-0.0136 -0.82491,6.44591 0,4.49793 0.0549,6.13868 0.21053,6.29433 0.34141,0.34141 0.82693,0.2454 0.93158,-0.18421 z m -8.06692,-3.46994 1.76542,-1.75941 1.7863,1.76767 c 1.5777,1.56125 1.82774,1.74551 2.1411,1.5778 0.19513,-0.10443 0.35479,-0.32384 0.35479,-0.48758 0,-0.16374 -0.76826,-1.06886 -1.70724,-2.01138 l -1.70724,-1.71367 1.72459,-1.73109 c 1.77099,-1.77766 2.04211,-2.32846 1.20492,-2.44788 -0.29949,-0.0427 -0.7993,0.34815 -2.08922,1.63389 l -1.69555,1.69005 -1.70149,-1.69511 c -1.77776,-1.77109 -2.30939,-2.0198 -2.41373,-1.12921 -0.0416,0.35523 0.26855,0.75293 1.60285,2.05512 l 1.65447,1.61465 -1.64672,1.64672 c -0.9475,0.9475 -1.64672,1.79132 -1.64672,1.98725 0,0.31672 0.30057,0.76159 0.51455,0.76159 0.0514,0 0.88794,-0.79174 1.85892,-1.75941 z m -29.25528,0.50805 c 2.56564,-1.242 2.54087,-4.96549 -0.0408,-6.1382 -2.81339,-1.27794 -5.74561,1.52964 -4.5603,4.36648 0.77222,1.84818 2.81684,2.63549 4.60114,1.77172 z m -2.11188,-0.47829 c -1.83879,-0.42652 -2.63076,-2.79408 -1.41712,-4.23642 1.21661,-1.44586 3.17494,-1.36408 4.22652,0.17649 0.51399,0.75299 0.53796,2.13147 0.051,2.93018 -0.53463,0.87682 -1.79857,1.37604 -2.86036,1.12975 z m 1.54544,-1.68344 c 0.52627,-0.52626 0.54936,-1.1255 0.067,-1.7387 -0.70885,-0.90117 -2.26797,-0.34821 -2.26797,0.80437 0,0.6344 0.70424,1.36495 1.31579,1.36495 0.25,0 0.64833,-0.19378 0.88517,-0.43062 z m 22.06221,2.07614 c 0.79736,-0.40377 1.16503,-0.76237 1.54505,-1.50695 0.66494,-1.30283 0.32651,-3.30535 -0.69877,-4.13468 -0.49582,-0.40105 -1.78647,-0.91618 -2.29548,-0.91618 -1.0907,0 -2.55083,0.9277 -3.09273,1.96498 -0.41164,0.78794 -0.31757,2.35832 0.19351,3.23041 0.85582,1.46035 2.89396,2.09893 4.34842,1.36242 z m -2.46745,-0.59931 c -1.34874,-0.54184 -2.03722,-2.36745 -1.37373,-3.64264 0.91968,-1.76761 3.03151,-2.03416 4.35879,-0.55017 0.58238,0.65116 0.65789,0.84076 0.65789,1.65199 0,1.94171 -1.87648,3.25049 -3.64295,2.54082 z m 1.96633,-1.61156 c 0.38755,-0.5533 0.34003,-1.35835 -0.10835,-1.83563 -0.47238,-0.50282 -1.00918,-0.51694 -1.61243,-0.0424 -0.57922,0.45561 -0.63378,1.3947 -0.11138,1.9171 0.49165,0.49164 1.47513,0.47069 1.83216,-0.039 z m 21.51893,2.29552 c 2.78616,-0.93285 3.31604,-4.59597 0.8876,-6.13604 -1.56987,-0.99559 -3.54528,-0.55491 -4.66701,1.04111 -0.44028,0.62645 -0.53069,0.92548 -0.53069,1.75536 0,1.4192 0.63657,2.46994 1.86817,3.08368 1.00513,0.50088 1.54213,0.55715 2.44193,0.25589 z m -2.67898,-1.34716 c -0.75603,-0.70522 -0.75977,-0.71473 -0.75977,-1.93523 0,-1.06617 0.0573,-1.2879 0.4386,-1.69593 0.89395,-0.95674 2.04315,-1.21296 3.22518,-0.71907 1.2041,0.5031 1.88672,2.38587 1.28472,3.54343 -0.52721,1.01373 -1.09135,1.36666 -2.30843,1.44415 -1.1051,0.0704 -1.131,0.0616 -1.8803,-0.63735 z m 2.58155,-0.98907 c 0.49761,-0.49761 0.55201,-1.15085 0.14729,-1.76854 -0.41054,-0.62655 -1.48098,-0.61046 -1.98464,0.0298 -0.41501,0.5276 -0.44277,0.75102 -0.16816,1.35372 0.38559,0.84627 1.35762,1.03287 2.00551,0.38498 z m -31.11008,-0.98317 c 0.3588,-0.23557 0.86233,-0.81282 1.11894,-1.28278 0.39903,-0.73077 0.45338,-0.99994 0.37545,-1.85937 -0.17441,-1.92346 -1.43053,-3.0666 -3.37484,-3.07131 -1.28052,-0.003 -2.00079,0.37478 -2.78336,1.46029 -0.47777,0.66271 -0.54999,0.90837 -0.54999,1.87086 0,0.94807 0.076,1.21582 0.52632,1.85524 1.09691,1.55737 3.18343,2.01455 4.68748,1.02707 z m -2.58221,-0.29371 c -1.09282,-0.27362 -1.84211,-1.32742 -1.84211,-2.59075 0,-1.5768 1.01133,-2.60851 2.57125,-2.62308 1.03048,-0.01 1.63551,0.33658 2.31281,1.32342 0.58703,0.85531 0.47286,2.2234 -0.24968,2.99182 -0.81089,0.86237 -1.74119,1.16176 -2.79227,0.89859 z m 1.65394,-1.73722 c 0.48235,-0.6132 0.45925,-1.21244 -0.067,-1.7387 -0.49672,-0.49672 -0.79501,-0.53162 -1.48666,-0.17396 -0.83737,0.43302 -0.95929,1.26868 -0.28368,1.9443 0.58601,0.586 1.36202,0.57264 1.83735,-0.0316 z m 40.81857,-1.2232 c 1.38735,-0.81305 2.04986,-2.67974 1.48156,-4.17448 -0.43469,-1.14333 -1.99497,-2.21026 -3.23229,-2.21026 -0.31077,0 -0.97643,0.205 -1.47923,0.45556 -1.93702,0.96526 -2.48896,3.44762 -1.13776,5.11707 1.08905,1.34556 2.88701,1.67986 4.36772,0.81211 z m -2.84447,-0.4964 c -0.88192,-0.38383 -1.5375,-1.3885 -1.5375,-2.35617 0,-1.59386 1.11466,-2.69546 2.72743,-2.69546 0.9561,0 1.51082,0.29908 2.15378,1.16124 0.51454,0.68996 0.49608,2.28514 -0.0351,3.03109 -0.7172,1.0072 -2.12732,1.37343 -3.30863,0.8593 z m 2.03876,-1.50236 c 0.52239,-0.5224 0.46784,-1.46148 -0.11138,-1.9171 -0.65576,-0.51581 -1.18168,-0.45781 -1.72719,0.19049 -0.50542,0.60065 -0.49317,1.18182 0.0373,1.77047 0.37903,0.42058 1.36071,0.39668 1.80125,-0.0439 z m -51.06981,-1.00878 c 0.43551,-0.35873 0.70092,-1.19322 0.55674,-1.75048 -0.46391,-1.79299 -3.04141,-1.61604 -3.28845,0.22576 -0.0795,0.59298 -0.018,0.80012 0.37753,1.27014 0.39676,0.47152 0.59357,0.5616 1.22701,0.5616 0.45956,0 0.90012,-0.12 1.12717,-0.30702 z m 10.34526,-4.36368 c 2.05326,-1.02318 2.55152,-3.53349 1.04248,-5.25219 -1.42569,-1.62377 -4.10553,-1.47596 -5.33218,0.2941 -1.05287,1.51929 -0.63925,3.69038 0.90497,4.75011 1.12826,0.77428 2.12537,0.83555 3.38473,0.20798 z m -2.92614,-0.77219 c -0.62059,-0.37837 -1.2514,-1.52812 -1.25788,-2.2927 -0.006,-0.72747 0.72944,-1.9295 1.4013,-2.28982 0.68219,-0.36586 1.75821,-0.42492 2.33446,-0.12813 0.93796,0.48308 1.699,1.59752 1.699,2.48798 0,0.63384 -0.73066,1.89878 -1.29588,2.24344 -0.74315,0.45315 -2.11995,0.44323 -2.881,-0.0208 z m 2.38625,-1.36498 c 0.69339,-0.90881 0.22988,-2.00969 -0.88642,-2.10531 -1.05401,-0.0903 -1.68908,0.94927 -1.17114,1.91705 0.37681,0.70407 1.58002,0.81417 2.05756,0.18826 z m 9.86434,1.80604 c 1.00642,-0.52043 1.21634,-1.89037 0.4049,-2.64238 -0.65878,-0.61054 -1.22748,-0.71252 -1.91342,-0.34312 -1.20402,0.64841 -1.24695,2.3572 -0.0739,2.94319 0.75033,0.37483 0.93015,0.37964 1.58247,0.0423 z m -19.96501,-3.05171 c 0.48529,-0.43361 0.56747,-0.622 0.55067,-1.26242 -0.0153,-0.58441 -0.12484,-0.84317 -0.4897,-1.15701 -0.95062,-0.81769 -2.56344,-0.33899 -2.82185,0.83755 -0.36106,1.64389 1.49882,2.70953 2.76088,1.58188 z m 17.03915,-5.65005 c 0.50251,-0.22896 0.81708,-0.83777 0.81708,-1.58136 0,-0.73138 -0.83632,-1.5572 -1.57699,-1.5572 -1.12879,0 -1.74251,0.60254 -1.75077,1.71891 -0.01,1.30724 1.22506,2.00541 2.51068,1.41965 z m -9.75898,-1.22672 c 1.49029,-0.55305 2.39265,-2.7231 1.79334,-4.31271 -0.25254,-0.66985 -1.18157,-1.6231 -1.86957,-1.91831 -0.71872,-0.3084 -2.00185,-0.31084 -2.73332,-0.005 -1.26244,0.52748 -2.21393,2.27137 -1.96456,3.60065 0.42603,2.27093 2.56894,3.45394 4.77411,2.63558 z m -2.68705,-0.75879 c -0.6593,-0.28701 -1.30539,-1.27972 -1.4102,-2.16676 -0.0893,-0.75566 0.44153,-1.81268 1.18832,-2.36629 1.22376,-0.90721 3.21976,-0.39954 3.84517,0.978 0.41851,0.92182 0.42013,1.42253 0.007,2.33102 -0.59123,1.30184 -2.20352,1.84538 -3.63082,1.22403 z m 2.25431,-1.53861 c 0.74937,-0.86666 0.0988,-2.13444 -1.04521,-2.03673 -1.34338,0.11476 -1.71969,1.82162 -0.51634,2.34205 0.65002,0.28112 1.13676,0.18595 1.56155,-0.30532 z m -7.74969,1.10081 c 0.37967,-0.37967 0.51282,-0.67927 0.51282,-1.15385 0,-1.44242 -1.84195,-2.23302 -2.85119,-1.22378 -0.52347,0.52347 -0.64599,1.01609 -0.44531,1.79053 0.29405,1.13479 1.89775,1.47303 2.78368,0.5871 z m 15.58713,-3.27472 c 0.44943,-0.37817 0.53977,-0.58111 0.53977,-1.21247 0,-0.63137 -0.0903,-0.83431 -0.53977,-1.21248 -0.75522,-0.63548 -1.60858,-0.61354 -2.28075,0.0586 -0.37967,0.37967 -0.51282,0.67926 -0.51282,1.15385 0,0.47458 0.13315,0.77418 0.51282,1.15384 0.67217,0.67217 1.52553,0.69411 2.28075,0.0586 z m -22.96801,-0.72735 c 0.83339,-1.05948 0.0375,-2.67811 -1.31685,-2.67811 -0.9101,0 -1.66876,0.77507 -1.66109,1.69703 0.007,0.80947 0.27551,1.19926 1.05214,1.52581 0.71637,0.30121 1.41606,0.10329 1.9258,-0.54473 z m 4.81503,-2.75098 c 1.11726,-0.46682 1.35043,-1.85781 0.46058,-2.74766 -0.69754,-0.69754 -1.53152,-0.69895 -2.27565,-0.004 -0.8773,0.81953 -0.68113,2.16615 0.3936,2.70184 0.69737,0.3476 0.70754,0.34796 1.42147,0.0497 z m 12.39044,-1.31715 c 0.86937,-0.86938 0.61937,-2.13337 -0.5406,-2.73321 -0.38987,-0.20161 -0.61865,-0.21881 -0.99813,-0.075 -0.88498,0.3353 -1.28179,0.8521 -1.28179,1.66937 0,1.49799 1.75341,2.20598 2.82052,1.13887 z m -7.24598,-2.9967 c 1.06755,-0.65089 1.15443,-1.90111 0.18856,-2.71383 -0.67198,-0.56543 -1.38056,-0.56543 -2.05255,0 -0.96586,0.81272 -0.87899,2.06294 0.18857,2.71383 0.316,0.19267 0.69297,0.3503 0.83771,0.3503 0.14473,0 0.5217,-0.15763 0.83771,-0.3503 z m -8.06982,-1.21745 c 0.4612,-0.42123 0.56542,-0.64914 0.56542,-1.23645 0,-1.20793 -1.19514,-2.03012 -2.2911,-1.57616 -0.71194,0.2949 -1.04224,0.81179 -1.04224,1.63102 0,0.53454 0.11658,0.78895 0.54487,1.18903 0.72939,0.68136 1.47163,0.67888 2.22305,-0.007 z"
     id="path3031"
     inkscape:connector-curvature="0" />
</svg>
